<svg version="1.2" xmlns="http://www.w3.org/2000/svg" viewBox="0 0 1931 1086">
	<title>artistica-svg</title>
	<style>
		.s0 { fill: #f77124 } 
		.s1 { paint-order:stroke fill markers;stroke: #000000;stroke-width: 4;stroke-linejoin: round;;fill: #ffffff } 
	</style>
	<path id="Layer" class="s0" d="m976 769.9q0.2 2.5-0.1 4.9-0.5 3.6-0.5 4.9-0.3 6.9-0.1 13.8c0 1.4-0.6 2.5-0.6 3.7q-0.3 25.4-0.2 50.8c0 1.4-0.6 2.9-0.7 4q-0.1 13.1 0 26.8 0 0.2-0.1 0.3 0 0.2-0.2 0.3-0.1 0.1-0.2 0.2-0.2 0-0.3 0-69-6.2-137.2-18.4-0.5-0.1-0.4-0.6 4.7-19.6 11.4-38.6 4.1-11.7 4.1-11.8 11.2-32.2 24.9-66.4 7-17.4 14.3-32.2 0.3-0.5 0.8-0.3 16.3 4.6 33.1 6.9 25.6 3.5 51.5 4.5 0.3 0.1 0.5 0.2 0.2 0.1 0.4 0.2 0.1 0.2 0.4 0.2h13.2q0.6 0 0.2 0.4l-0.4 0.3q-0.3 0.4-0.4 0.8l-0.8 44q0 0.5-0.4 0.5h-11.7q-0.6 0-0.5 0.6z"/>
	<path id="Layer" class="s0" d="m818.9 939.2q-1.2-0.3-1.5-0.3-2-0.3-1.2-2.1 1.3-3 2.1-6.2 8-30.9 15.2-62.1 0.1-0.5 0.6-0.7 1.4-0.9 3.3-0.6 67.3 12.1 135.8 18.2 0.1 0 0.2 0.1 0.1 0 0.2 0.1 0.1 0.1 0.2 0.2 0 0.1 0 0.2-0.1 13.1 0 26.2c0 1.5 0.6 3.1 0.6 4.6q0.2 18.7 0.1 37.4 0 0.6-0.5 0.5-2.6-0.5-8.2-1-69.7-6.8-139.3-13.6c-1.8-0.2-5.2-0.2-7.6-0.9z"/>
	<path id="Artistica" class="s1" aria-label="Artistica"  d="m836.3 810.3l-6.9-18.5-6.8 18.5zm-23.9 13.7l14.2-37.2h5.7l14.2 37.2h-5.2l-3.4-9.5h-16.8l-3.4 9.5zm55.5-28.3v4.7q-0.8-0.5-1.7-0.7-0.9-0.2-2-0.2-3.9 0-6 2.6-2 2.5-2 7.2v14.7h-4.6v-27.9h4.6v4.3q1.4-2.5 3.7-3.7 2.3-1.3 5.6-1.3 0.5 0 1.1 0.1 0.6 0.1 1.3 0.2zm4.7-7.5h4.6v7.9h9.5v3.6h-9.5v15.1q0 3.4 0.9 4.4 1 1 3.9 1h4.7v3.8h-4.7q-5.3 0-7.4-2-2-2-2-7.2v-15.1h-3.3v-3.6h3.3zm20.1 35.8v-27.9h4.6v27.9zm0-32.9v-5.8h4.6v5.8zm31.9 5.9v4.3q-1.9-1-4-1.5-2.1-0.5-4.4-0.5-3.4 0-5.1 1-1.7 1.1-1.7 3.2 0 1.6 1.2 2.5 1.3 0.9 4.9 1.7l1.6 0.4q4.9 1 6.9 2.9 2.1 1.9 2.1 5.3 0 3.9-3.1 6.2-3.1 2.2-8.4 2.2-2.3 0-4.7-0.4-2.4-0.4-5.1-1.3v-4.7q2.5 1.3 5 2 2.5 0.6 4.9 0.6 3.2 0 4.9-1.1 1.8-1.1 1.8-3.1 0-1.9-1.3-2.9-1.2-1-5.5-1.9l-1.6-0.4q-4.2-0.9-6.1-2.7-1.9-1.9-1.9-5.1 0-4 2.8-6.1 2.8-2.1 7.9-2.1 2.5 0 4.8 0.3 2.2 0.4 4.1 1.2zm8.7-8.8h4.6v7.9h9.5v3.6h-9.5v15.1q0 3.4 0.9 4.4 1 1 3.9 1h4.7v3.8h-4.7q-5.3 0-7.4-1.9-2-2-2-7.3v-15.1h-3.3v-3.6h3.3zm20.1 35.8v-27.9h4.6v27.9zm0-32.9v-5.8h4.6v5.8zm34.2 6.1v4.3q-1.9-1.1-3.9-1.6-2-0.5-3.9-0.5-4.5 0-7 2.8-2.4 2.8-2.4 7.9 0 5.1 2.4 8 2.5 2.8 7 2.8 1.9 0 3.9-0.5 2-0.6 3.9-1.7v4.3q-1.9 0.9-4 1.3-2 0.5-4.3 0.5-6.3 0-10.1-4-3.7-4-3.7-10.7 0-6.8 3.8-10.7 3.7-3.9 10.3-3.9 2.1 0 4.1 0.4 2 0.4 3.9 1.3zm25.2 12.8h-4.6q-5.5 0-7.7 1.3-2.1 1.3-2.1 4.3 0 2.5 1.6 3.9 1.6 1.4 4.4 1.4 3.8 0 6.1-2.7 2.3-2.7 2.3-7.2zm4.6-1.9v16h-4.6v-4.3q-1.6 2.6-3.9 3.8-2.4 1.2-5.7 1.2-4.3 0-6.9-2.4-2.5-2.4-2.5-6.5 0-4.7 3.2-7.1 3.1-2.3 9.4-2.3h6.4v-0.5q0-3.2-2.1-4.9-2.1-1.7-5.8-1.7-2.4 0-4.7 0.6-2.2 0.5-4.3 1.7v-4.3q2.5-0.9 4.8-1.4 2.4-0.5 4.7-0.5 6 0 9 3.1 3 3.2 3 9.5z"/>
</svg>