<svg version="1.2" xmlns="http://www.w3.org/2000/svg" viewBox="0 0 1931 1086">
	<title>sillasymesas-svg</title>
	<style>
		.s0 { fill: #41bbd7 } 
		.s1 { paint-order:stroke fill markers;stroke: #000000;stroke-width: 4;stroke-linejoin: round;;fill: #ffffff } 
	</style>
	<path id="Layer" class="s0" d="m585.2 625q1.1 0 1.5 1 0.3 0.6-0.1 1.5-22.1 60.5-45.2 124-0.4 1.1-1.4 0.8l-106.7-23.9q-0.1-0.1-0.2-0.1-0.1-0.1-0.2-0.2-0.1-0.2-0.1-0.3 0-0.2 0.1-0.3l50-126.1q0.1-0.3 0.3-0.5 0.2-0.3 0.5-0.4 0.3-0.2 0.7-0.2 0.3-0.1 0.6 0 10.7 2.8 21.5 5.3 38.4 9.1 76.6 19.3 0.4 0.1 2.1 0.1z"/>
	<path id="Aula 1" class="s1" aria-label="Aula 1"  d="m460.3 682.3l-6.9-18.5-6.8 18.5zm-23.9 13.7l14.2-37.2h5.7l14.2 37.2h-5.2l-3.4-9.5h-16.8l-3.4 9.5zm38.9-11v-16.9h4.5v16.7q0 4 1.6 6 1.5 1.9 4.6 1.9 3.7 0 5.9-2.3 2.1-2.4 2.1-6.5v-15.8h4.6v27.9h-4.6v-4.3q-1.6 2.6-3.9 3.8-2.1 1.2-5.1 1.2-4.8 0-7.3-3-2.4-3-2.4-8.7zm11.5-17.6zm21.3 28.6v-38.7h4.5v38.7zm31.4-14h-4.5q-5.6 0-7.7 1.3-2.2 1.2-2.2 4.3 0 2.4 1.6 3.9 1.7 1.4 4.4 1.4 3.8 0 6.1-2.7 2.3-2.7 2.3-7.2zm4.6-1.9v15.9h-4.6v-4.2q-1.5 2.5-3.9 3.7-2.3 1.2-5.7 1.2-4.3 0-6.8-2.3-2.5-2.5-2.5-6.5 0-4.7 3.1-7.1 3.2-2.4 9.4-2.4h6.4v-0.4q0-3.2-2.1-4.9-2-1.8-5.8-1.8-2.4 0-4.6 0.6-2.3 0.6-4.4 1.7v-4.2q2.5-1 4.9-1.4 2.3-0.5 4.6-0.5 6 0 9 3.1 3 3.1 3 9.5zm27.2 15.9v-4.2h8.2v-28.4l-8.9 1.8v-4.6l8.9-1.8h5v33h8.2v4.2z"/>
</svg>