<svg version="1.2" xmlns="http://www.w3.org/2000/svg" viewBox="0 0 1931 1086">
	<title>comedor-svg</title>
	<style>
		.s0 { fill: #41bbd7 } 
		.s1 { paint-order:stroke fill markers;stroke: #000000;stroke-width: 4;stroke-linejoin: round;;fill: #ffffff } 
	</style>
	<path id="Layer" class="s0" d="m369.8 752.5q-30.3-11.4-58.2-28.1-22.4-13.4-40.4-32.3c-18.2-19.1-30.7-47.6-25.9-74.1q1.6-8.9 5.3-18.2 3.2-8.1 7.9-17.2 12-22.7 30.4-38.9 22.8-19.9 52.9-25c17.2-2.8 37.4-1.6 54.2 2q3.6 0.8 15 3.9 7.3 2 14.8 4.9 33.6 12.9 67.5 25.2 0.6 0.2 0.4 0.8l-11.1 27.8q-0.3 0.6-0.8 0.5-13.6-2.8-27-5.5-1.4-0.3-2.9 0.9-28 22.3-43.1 56.3-9.9 22.1-14 43-5.7 28.7-4.7 58.6 0 0.2 0.1 0.3 0 0.2 0.1 0.4 0.1 0.1 0.3 0.2 0.2 0.1 0.3 0.2 9 2.3 18.3 4.6 0.1 0 3.6 1 2.2 0.6 4 0.7 1.8 0 1.1 1.8l-7.9 19.5q-0.1 0.3-0.4 0.2-10.6-3-21-6.7-8.9-3.1-18.8-6.8z"/>
	<path id="Comedor" class="s1" aria-label="Comedor"  d="m265.8 577.7v5.3q-2.5-2.4-5.4-3.5-2.8-1.2-6.1-1.2-6.4 0-9.7 3.9-3.4 3.9-3.4 11.2 0 7.4 3.4 11.3 3.3 3.9 9.7 3.9 3.3 0 6.1-1.2 2.9-1.2 5.4-3.5v5.2q-2.6 1.8-5.6 2.7-2.9 0.9-6.2 0.9-8.4 0-13.3-5.1-4.8-5.2-4.8-14.2 0-8.9 4.8-14.1 4.9-5.2 13.3-5.2 3.4 0 6.3 0.9 3 0.9 5.5 2.7zm18.4 9.6q-3.7 0-5.8 2.9-2.1 2.9-2.1 7.9 0 5 2.1 7.9 2.1 2.8 5.8 2.8 3.7 0 5.8-2.9 2.2-2.8 2.2-7.8 0-5-2.2-7.9-2.1-2.9-5.8-2.9zm0-3.9q6 0 9.4 3.9 3.4 3.9 3.4 10.8 0 6.8-3.4 10.7-3.4 3.9-9.4 3.9-6 0-9.4-3.9-3.4-3.9-3.4-10.7 0-6.9 3.4-10.8 3.4-3.9 9.4-3.9zm42.1 6.1q1.8-3.1 4.1-4.6 2.4-1.5 5.7-1.5 4.3 0 6.7 3.1 2.4 3 2.4 8.7v16.8h-4.6v-16.7q0-4-1.5-5.9-1.4-2-4.3-2-3.6 0-5.6 2.4-2.1 2.4-2.1 6.4v15.8h-4.6v-16.7q0-4-1.4-5.9-1.4-2-4.4-2-3.5 0-5.6 2.4-2 2.4-2 6.4v15.8h-4.7v-27.9h4.7v4.3q1.5-2.5 3.7-3.7 2.2-1.3 5.2-1.3 3.1 0 5.2 1.6 2.1 1.5 3.1 4.5zm51.9 7.4v2.3h-21.1q0.3 4.7 2.8 7.2 2.6 2.4 7.1 2.4 2.7 0 5.2-0.6 2.4-0.7 4.9-2v4.4q-2.5 1-5.1 1.6-2.6 0.5-5.2 0.5-6.7 0-10.6-3.9-3.9-3.8-3.9-10.5 0-6.8 3.7-10.8 3.7-4.1 10-4.1 5.6 0 8.9 3.7 3.3 3.6 3.3 9.8zm-21-1.3h16.4q-0.1-3.8-2.1-6-2.1-2.3-5.5-2.3-3.8 0-6.1 2.2-2.3 2.2-2.7 6.1zm46.8-7.3v-15h4.6v38.7h-4.6v-4.2q-1.4 2.5-3.6 3.7-2.2 1.2-5.3 1.2-5.1 0-8.3-4-3.1-4-3.1-10.6 0-6.6 3.1-10.6 3.2-4.1 8.3-4.1 3.1 0 5.3 1.3 2.2 1.2 3.6 3.6zm-15.6 9.8q0 5 2.1 7.9 2.1 2.9 5.7 2.9 3.6 0 5.7-2.9 2.1-2.9 2.1-7.9 0-5.1-2.1-7.9-2.1-2.9-5.7-2.9-3.6 0-5.7 2.9-2.1 2.8-2.1 7.9zm40.5-10.8q-3.7 0-5.9 2.9-2.1 2.9-2.1 7.9 0 5 2.1 7.9 2.1 2.8 5.9 2.8 3.6 0 5.8-2.9 2.1-2.8 2.1-7.8 0-5-2.1-7.9-2.2-2.9-5.8-2.9zm0-3.9q5.9 0 9.3 3.9 3.5 3.9 3.5 10.8 0 6.8-3.5 10.7-3.4 3.9-9.3 3.9-6 0-9.5-3.9-3.3-3.9-3.3-10.7 0-6.9 3.3-10.8 3.5-3.9 9.5-3.9zm36.5 0.3v4.7q-0.8-0.5-1.7-0.7-0.9-0.2-2-0.2-3.9 0-5.9 2.6-2.1 2.5-2.1 7.2v14.7h-4.6v-27.9h4.6v4.3q1.4-2.5 3.7-3.7 2.4-1.3 5.7-1.3 0.4 0 1 0.1 0.6 0.1 1.3 0.2z"/>
</svg>