<svg version="1.2" xmlns="http://www.w3.org/2000/svg" viewBox="0 0 1931 1086">
	<title>informatica-svg</title>
	<style>
		.s0 { fill: #74519d } 
		.s1 { paint-order:stroke fill markers;stroke: #000000;stroke-width: 4;stroke-linejoin: round;;fill: #ffffff } 
	</style>
	<path id="Layer" class="s0" d="m1174.8 810.6q1.3 3.6 2.5 7.2 9.3 26.9 18.6 52.3 0.7 2-1.4 2.1-53.8 4.7-106.7 6.8-18.3 0.8-36.5 1.6-0.5 0.1-0.5-0.4-3-47.3-5.3-94.5c-0.1-2.7-0.8-8.1-0.8-12.2q0-2.7-0.5-4.9-1.2-6.3-1.9-12.6-0.3-1.9 0.3-4.9c0.7-4.7-1.1-8.2-1.1-12.4q0-7.1-0.4-14.2 0-0.6 0.5-0.6 38.7 0.7 59.7-1 23.1-1.8 46.3-4.2 0.4 0 0.5 0.4 3.1 19.4 8.4 38.3 2.1 7.3 6.3 19 6.1 17 12 34.2z"/>
	<path id="Layer" class="s0" d="m1198.4 878.3l18.3 61.5q0.2 0.6-0.5 0.7l-157.9 14.2q-0.2 0-0.3 0-0.2-0.1-0.3-0.2-0.2-0.1-0.2-0.2-0.1-0.2-0.1-0.3l-6.3-66.9q0-0.7 0.7-0.7 38.5-2.1 76.9-3.9 34.2-1.6 61.3-4.2 5-0.5 7.8-0.5 0.5 0 0.6 0.5z"/>
	<path id="Informatica" class="s1" aria-label="Informatica"  d="m989 850v-37.2h5v37.2zm38.1-16.8v16.8h-4.6v-16.7q0-3.9-1.6-5.9-1.5-2-4.6-2-3.7 0-5.8 2.4-2.2 2.4-2.2 6.4v15.8h-4.6v-27.9h4.6v4.3q1.7-2.5 3.9-3.7 2.2-1.3 5.1-1.3 4.8 0 7.3 3 2.5 3 2.5 8.8zm18.9-21.9h4.3v3.8h-4.4q-2.4 0-3.4 1-0.9 1-0.9 3.5v2.5h7.5v3.6h-7.5v24.3h-4.7v-24.3h-4.3v-3.6h4.3v-1.9q0-4.7 2.2-6.8 2.2-2.1 6.9-2.1zm19 14q-3.7 0-5.9 2.9-2.1 2.9-2.1 7.9 0 5 2.1 7.9 2.2 2.8 5.9 2.8 3.6 0 5.8-2.9 2.1-2.8 2.1-7.8 0-5-2.1-7.9-2.2-2.9-5.8-2.9zm0-3.9q5.9 0 9.4 3.9 3.4 3.9 3.4 10.8 0 6.8-3.4 10.7-3.5 3.9-9.4 3.9-6 0-9.5-3.9-3.3-3.9-3.3-10.7 0-6.9 3.3-10.8 3.5-3.9 9.5-3.9zm36.5 0.3v4.7q-0.8-0.5-1.7-0.7-0.9-0.2-2-0.2-3.9 0-5.9 2.6-2.1 2.5-2.1 7.2v14.7h-4.6v-27.9h4.6v4.3q1.4-2.5 3.8-3.7 2.3-1.3 5.6-1.3 0.5 0 1 0.1 0.6 0.1 1.3 0.2zm25.6 5.8q1.8-3.1 4.2-4.6 2.3-1.5 5.6-1.5 4.3 0 6.7 3.1 2.4 3 2.4 8.7v16.8h-4.6v-16.7q0-4-1.5-5.9-1.4-2-4.3-2-3.6 0-5.6 2.4-2.1 2.4-2.1 6.4v15.8h-4.6v-16.7q0-4-1.4-5.9-1.4-2-4.4-2-3.5 0-5.6 2.4-2 2.4-2 6.4v15.8h-4.6v-27.9h4.6v4.3q1.5-2.5 3.7-3.7 2.2-1.3 5.2-1.3 3.1 0 5.2 1.6 2.1 1.5 3.1 4.5zm45.2 8.5h-4.5q-5.6 0-7.7 1.2-2.2 1.3-2.2 4.4 0 2.4 1.6 3.9 1.7 1.4 4.4 1.4 3.8 0 6.1-2.7 2.3-2.7 2.3-7.2zm4.6-1.9v15.9h-4.6v-4.2q-1.5 2.5-3.9 3.7-2.3 1.2-5.7 1.2-4.3 0-6.8-2.3-2.5-2.5-2.5-6.5 0-4.7 3.1-7.1 3.2-2.4 9.4-2.4h6.4v-0.4q0-3.2-2.1-4.9-2-1.8-5.8-1.8-2.4 0-4.6 0.6-2.3 0.6-4.4 1.7v-4.2q2.5-1 4.9-1.4 2.4-0.5 4.6-0.5 6 0 9 3.1 3 3.1 3 9.5zm9.4-19.9h4.6v7.9h9.4v3.6h-9.4v15.1q0 3.4 0.9 4.4 1 1 3.8 1h4.7v3.8h-4.7q-5.3 0-7.3-1.9-2-2-2-7.3v-15.1h-3.4v-3.6h3.4zm20.1 35.8v-27.9h4.5v27.9zm0-32.9v-5.8h4.6v5.8zm34.3 6.1v4.3q-2-1.1-3.9-1.6-2-0.5-4-0.5-4.4 0-6.9 2.8-2.5 2.8-2.5 7.9 0 5.1 2.5 8 2.5 2.8 6.9 2.8 2 0 4-0.5 1.9-0.6 3.9-1.7v4.3q-2 0.9-4 1.3-2.1 0.5-4.4 0.5-6.3 0-10-4-3.7-4-3.7-10.7 0-6.8 3.7-10.7 3.8-3.9 10.3-3.9 2.1 0 4.2 0.4 2 0.4 3.9 1.3zm25.2 12.8h-4.6q-5.5 0-7.7 1.3-2.1 1.3-2.1 4.3 0 2.5 1.6 3.9 1.6 1.4 4.3 1.4 3.9 0 6.1-2.7 2.4-2.7 2.4-7.2zm4.5-1.9v16h-4.5v-4.3q-1.6 2.6-3.9 3.8-2.4 1.2-5.8 1.2-4.3 0-6.8-2.4-2.5-2.4-2.5-6.5 0-4.7 3.1-7.1 3.2-2.3 9.4-2.3h6.5v-0.5q0-3.2-2.1-4.9-2.1-1.7-5.9-1.7-2.3 0-4.6 0.6-2.3 0.5-4.4 1.7v-4.3q2.5-0.9 4.9-1.4 2.4-0.5 4.6-0.5 6.1 0 9.1 3.1 2.9 3.2 2.9 9.5z"/>
</svg>