<svg version="1.2" xmlns="http://www.w3.org/2000/svg" viewBox="0 0 1931 1086">
	<title>laboratorio-svg</title>
	<style>
		.s0 { fill: #03a8e9 } 
		.s1 { paint-order:stroke fill markers;stroke: #000000;stroke-width: 4;stroke-linejoin: round;;fill: #ffffff } 
	</style>
	<path id="Layer" class="s0" d="m1568.3 780.9q-8.8 2.9-17.6 5.9-49.7 16.9-100.2 31.3-0.4 0.1-0.7-0.3l-71.7-108.2q-1.3-2-3.5-1.1l-20 7.7q-0.6 0.2-0.9-0.3l-19.1-34q-0.3-0.4 0.2-0.5 52.7-15.3 104.3-34.2 0.3-0.2 0.7-0.2 0.3 0 0.7 0.1 0.3 0.1 0.7 0.2 0.3 0.2 0.5 0.5l131 130.9q0.1 0.1 0.2 0.2 0 0.2 0 0.3-0.1 0.1-0.1 0.2-0.1 0.1-0.2 0.1-2.1 0.7-4.3 1.4z"/>
	<path id="Laboratorio" class="s1" aria-label="Laboratorio"  d="m1338 779v-37.2h5v33h18.1v4.2zm45.5-14h-4.6q-5.5 0-7.7 1.3-2.1 1.2-2.1 4.3 0 2.4 1.6 3.9 1.6 1.4 4.4 1.4 3.8 0 6.1-2.7 2.3-2.7 2.3-7.2zm4.6-1.9v15.9h-4.6v-4.2q-1.6 2.5-3.9 3.7-2.4 1.2-5.8 1.2-4.2 0-6.8-2.3-2.5-2.5-2.5-6.5 0-4.7 3.1-7.1 3.2-2.4 9.5-2.4h6.4v-0.4q0-3.2-2.1-4.9-2.1-1.8-5.8-1.8-2.4 0-4.7 0.6-2.3 0.6-4.3 1.7v-4.2q2.5-1 4.8-1.4 2.4-0.5 4.6-0.5 6.1 0 9.1 3.1 3 3.1 3 9.5zm29.4 2q0-5.1-2.1-7.9-2-2.9-5.7-2.9-3.6 0-5.7 2.9-2.1 2.8-2.1 7.9 0 5.1 2.1 7.9 2.1 2.9 5.7 2.9 3.7 0 5.7-2.9 2.1-2.8 2.1-7.9zm-15.6-24.8v15.1q1.5-2.5 3.7-3.7 2.2-1.2 5.3-1.2 5 0 8.2 4 3.2 4 3.2 10.6 0 6.6-3.2 10.6-3.2 4-8.2 4-3.1 0-5.3-1.2-2.2-1.2-3.7-3.7v4.2h-4.6v-38.7zm38.8 14q-3.7 0-5.8 2.9-2.2 2.9-2.2 7.9 0 5 2.1 7.9 2.2 2.9 5.9 2.9 3.6 0 5.8-2.9 2.1-2.9 2.1-7.9 0-5-2.1-7.8-2.2-3-5.8-3zm0-3.8q6 0 9.4 3.8 3.4 3.9 3.4 10.8 0 6.8-3.4 10.8-3.4 3.8-9.4 3.8-6 0-9.4-3.8-3.4-4-3.4-10.8 0-6.9 3.4-10.8 3.4-3.8 9.4-3.8zm36.5 0.2v4.7q-0.7-0.4-1.7-0.6-0.9-0.3-1.9-0.3-3.9 0-6 2.6-2.1 2.5-2.1 7.2v14.7h-4.6v-27.9h4.6v4.4q1.5-2.6 3.8-3.8 2.3-1.2 5.6-1.2 0.5 0 1 0 0.6 0.1 1.3 0.2zm22.1 14.3h-4.6q-5.5 0-7.7 1.3-2.1 1.2-2.1 4.3 0 2.4 1.6 3.9 1.6 1.4 4.4 1.4 3.8 0 6.1-2.7 2.3-2.7 2.3-7.2zm4.6-1.9v15.9h-4.6v-4.2q-1.6 2.5-3.9 3.8-2.4 1.2-5.8 1.2-4.2 0-6.8-2.4-2.5-2.4-2.5-6.5 0-4.7 3.1-7.1 3.2-2.4 9.5-2.4h6.4v-0.4q0-3.2-2.1-4.9-2.1-1.7-5.8-1.7-2.4 0-4.7 0.5-2.3 0.6-4.4 1.8v-4.3q2.6-0.9 4.9-1.4 2.4-0.5 4.6-0.5 6.1 0 9.1 3.1 3 3.2 3 9.5zm9.3-19.9h4.6v8h9.5v3.5h-9.5v15.2q0 3.4 0.9 4.3 1 1 3.9 1h4.7v3.8h-4.7q-5.3 0-7.4-1.9-2-2-2-7.2v-15.2h-3.3v-3.5h3.3zm30.9 11.1q-3.7 0-5.8 2.9-2.2 2.8-2.2 7.8 0 5 2.1 7.9 2.2 2.9 5.9 2.9 3.7 0 5.8-2.9 2.1-2.9 2.1-7.9 0-4.9-2.1-7.8-2.1-2.9-5.8-2.9zm0-3.9q6 0 9.4 3.9 3.4 3.9 3.4 10.7 0 6.9-3.4 10.8-3.4 3.9-9.4 3.9-6 0-9.4-3.9-3.4-3.9-3.4-10.8 0-6.8 3.4-10.7 3.4-3.9 9.4-3.9zm36.5 0.2l0.1 4.8q-0.8-0.5-1.7-0.7-0.9-0.2-2-0.2-3.9 0-6 2.5-2.1 2.5-2.1 7.3v14.7h-4.6v-27.9h4.6v4.3q1.5-2.5 3.8-3.8 2.3-1.2 5.6-1.2 0.5 0 1.1 0.1 0.5 0 1.2 0.1zm4.9 28.4v-27.9h4.5v27.9zm0-33v-5.8h4.6v5.8zm25 8.3q-3.7 0-5.8 2.9-2.2 2.8-2.2 7.8 0 5 2.2 7.9 2.1 2.9 5.8 2.9 3.7 0 5.8-2.9 2.1-2.9 2.1-7.9 0-4.9-2.1-7.8-2.1-2.9-5.8-2.9zm0-3.9q6 0 9.4 3.9 3.4 3.9 3.4 10.7 0 6.9-3.4 10.8-3.4 3.9-9.4 3.9-6 0-9.4-3.9-3.4-3.9-3.4-10.8 0-6.8 3.4-10.7 3.4-3.9 9.4-3.9z"/>
</svg>