<svg version="1.2" xmlns="http://www.w3.org/2000/svg" viewBox="0 0 1931 1086">
	<title>maker-svg</title>
	<style>
		.s0 { fill: #75519d } 
		.s1 { paint-order:stroke fill markers;stroke: #000000;stroke-width: 4;stroke-linejoin: round;;fill: #ffffff } 
	</style>
	<path id="Layer" class="s0" d="m1268.6 698q1-0.6 2.1-0.4 0.5 0.1 0.9-0.2c1.1-0.8 2.1-0.4 3.2-0.7q4.1-1.1 8.2-1.9c5.9-1.3 11.7-3 17.6-4.3q0.1 0 0.2 0 0.1 0 0.2 0.1 0.1 0 0.2 0.1 0.1 0.1 0.2 0.2 20.1 32.7 31.4 48.8 30 42.5 59.7 85.1 2 2.8 4.5 6.9 0.1 0.2 0.1 0.3 0 0.2-0.1 0.3-0.1 0.1-0.2 0.2-0.2 0.1-0.3 0.1l-1.6-0.1q-0.1 0-0.2 0-0.1 0.1-0.2 0.1-0.1 0-0.2 0.1-0.1 0.1-0.2 0.1c-0.8 0.7-1.6 0.6-2.5 0.9q-2.6 0.9-5.2 1.8-0.5 0.2-1 0.1-0.7-0.2-1.2 0.4-0.3 0.4-0.8 0.3-0.8-0.2-1.5 0.3-0.4 0.4-0.9 0.4c-2 0.3-4.2 1.2-5.7 1.6q-18.4 4.7-37 8.7-38.1 8.2-76.8 14.4-0.1 0-0.2 0-0.2 0-0.3 0-0.1-0.1-0.2-0.2 0-0.1-0.1-0.2-5.5-12.3-11-24.8-4.8-10.7-9.4-21.6-5.3-12.2-8-17.7-0.5-0.9-0.6-1.6-0.1-0.5-0.3-0.9-1.9-3-3.2-6.3-3.7-9-7.5-17.9c-7.4-16.9-18.4-37-26.2-58q-0.2-0.5 0.3-0.5c1.5 0 2.4 0.1 3.8-0.5 1.3-0.4 3.6 0 4.4-0.6q0.3-0.2 0.7-0.3c19.2-2.9 38.3-6.9 57.3-10.8 1.1-0.2 2-0.9 3.6-0.6q0.1 0 0.2 0 0.1 0 0.3-0.1 0.1 0 0.2 0 0.1-0.1 0.2-0.2 0.9-0.7 2-0.6 0.6 0.1 1.1-0.3z"/>
	<path id="Maker" class="s1" aria-label="Maker"  d="m1224 793v-37.2h7.5l9.5 25.3 9.5-25.3h7.5v37.2h-4.9v-32.6l-9.6 25.5h-5l-9.6-25.5v32.6zm61-14h-4.5q-5.6 0-7.7 1.3-2.2 1.2-2.2 4.3 0 2.4 1.6 3.9 1.6 1.4 4.4 1.4 3.8 0 6.1-2.7 2.3-2.7 2.3-7.2zm4.6-1.9v15.9h-4.6v-4.2q-1.5 2.5-3.9 3.7-2.3 1.2-5.7 1.2-4.3 0-6.8-2.3-2.6-2.5-2.6-6.5 0-4.7 3.2-7.1 3.1-2.4 9.4-2.4h6.4v-0.4q0-3.2-2.1-4.9-2-1.8-5.8-1.8-2.4 0-4.7 0.6-2.2 0.6-4.3 1.7v-4.2q2.5-1 4.9-1.4 2.3-0.5 4.6-0.5 6 0 9 3.1 3 3.1 3 9.5zm9.3 15.9v-38.7h4.6v22.9l13.6-12.1h5.9l-14.8 13.1 15.4 14.8h-6l-14.1-13.6v13.6zm51.7-15.1v2.3h-21q0.3 4.7 2.8 7.2 2.6 2.5 7.1 2.5 2.7 0 5.1-0.7 2.5-0.6 5-1.9v4.3q-2.5 1-5.1 1.6-2.6 0.5-5.3 0.5-6.6 0-10.5-3.8-3.9-3.9-3.9-10.6 0-6.8 3.7-10.8 3.7-4 9.9-4 5.7 0 8.9 3.6 3.3 3.6 3.3 9.8zm-20.9-1.3h16.3q0-3.8-2.1-6-2-2.3-5.4-2.3-3.8 0-6.2 2.2-2.2 2.2-2.6 6.1zm44.6-11.9v4.7q-0.8-0.4-1.7-0.6-0.9-0.3-2-0.3-3.9 0-6 2.6-2 2.5-2 7.2v14.7h-4.6v-27.9h4.6v4.4q1.4-2.6 3.7-3.8 2.4-1.2 5.7-1.2 0.4 0 1 0 0.6 0.1 1.3 0.2z"/>
	<path id="Layer" class="s0" d="m1280.8 905.9q-8.8-18.8-17.2-37.8-0.2-0.5 0.3-0.6 2.9-0.8 6-1.4 52.1-8.6 103.4-21.2c1.1-0.3 2.3-1.1 3.7-0.9q0.6 0 1-0.4 0.7-0.6 1.7-0.4 0.6 0.1 1.1-0.2 0.2-0.1 0.3-0.2 0.1-0.1 0.1-0.1 0.1-0.1 0.1-0.1 0.1-0.1 0.2-0.1 0 0 0.1 0 5.6-1.2 11-3 0.1 0 0.8-0.1 0.4-0.1 0.7-0.5 0.3-0.3 0.7-0.3l0.7 0.1q0.4 0 0.9-0.2l3.9-1.4q0.4-0.1 0.6 0.3l28.6 48.4q0.6 1.1-0.6 1.5-19.8 5.5-37.4 10.3-50 13.8-75.1 20.5-7 1.9-9.3 2.6c-0.6 0.2-1.1-0.1-1.6 0.2q-2.3 1.1-4.8 1.5-0.5 0-0.9 0.3c-0.9 0.5-1.8 0.3-2.6 0.6-1.4 0.5-2.6 1-4.2 1.2q-1.5 0.3-2.8 1-0.6 0.3-0.9-0.3l-8.4-18.8q-0.1-0.1-0.1-0.3 0.1-0.1 0-0.2z"/>
</svg>