<svg version="1.2" xmlns="http://www.w3.org/2000/svg" viewBox="0 0 1931 1086">
	<title>polideportivo-svg</title>
	<style>
		.s0 { fill: #eb0086 } 
		.s1 { paint-order:stroke fill markers;stroke: #000000;stroke-width: 4;stroke-linejoin: round;;fill: #ffffff } 
	</style>
	<path id="Layer" class="s0" d="m924.3 766.2c-2.3-3.7-3.5-6.8-7.4-8.6q-0.5-0.2-0.8-0.6-9.9-13.8-12.3-18.3-50.8-96.1-96.8-194.7-24.1-51.8-40.5-96-4.3-11.5-9.4-31.1c-0.6-2.3-1.9-7 0.2-9.5q9-10.5 14.5-15.6c68.6-64.7 156.9-84.9 248.9-64.5q1.7 0.4 5.1 4.2 62.3 70.9 106.5 153.4c28.9 53.8 51.3 114.3 57.7 175.6q0.5 5.1 1.5 10.1 0 0.1 0 0.2 0 0.1-0.1 0.3 0 0.1-0.1 0.2 0 0.1-0.1 0.2c-15.4 18.2-33.2 32.8-54 44.2q-6.6 3.6-15.9 7-87 31.3-173.9 62.8 0 0-4.6 1.8-4.6 1.7-9.8 2.9-0.2 0.1-0.3 0-0.2 0-0.3-0.1-0.1-0.1-0.2-0.2 0-0.1-0.1-0.3-0.1-1.5 0.8-3.1 0.1-0.1 0.1-0.3 0.1-0.1 0.2-0.3 0.1-0.1 0.2-0.2 0-0.1 0.1-0.1l2.6-2.8q0.1-0.1 0.1-0.1 0-0.1 0-0.2 0-0.1 0-0.2-0.1-0.1-0.2-0.1l-2.4-1.7q-0.2-0.2-0.2-0.5v-0.3q0-0.6-0.4-0.9-4.9-4.3-8.4-9.7-0.1-0.1-1-1.2-0.8-0.8-0.4-2.1 0.2-0.8 0.3 0l0.2 1.7q0 0.5 0.4 0.2 0.7-0.6 0.2-1.5z"/>
	<path id="Polideportivo" class="s1" aria-label="Polideportivo"  d="m822.4 507h-6.4v13.9h6.4q3.5 0 5.4-1.8 1.9-1.8 1.9-5.2 0-3.3-1.9-5.1-1.9-1.8-5.4-1.8zm-11.4 33v-37.2h11.4q6.2 0 9.4 2.9 3.2 2.8 3.2 8.2 0 5.5-3.2 8.3-3.2 2.9-9.4 2.9h-6.4v14.9zm39.6-24.7q-3.7 0-5.8 2.9-2.2 2.9-2.2 7.9 0 5 2.1 7.9 2.2 2.8 5.9 2.8 3.6 0 5.8-2.9 2.1-2.8 2.1-7.8 0-5-2.1-7.9-2.2-2.9-5.8-2.9zm0-3.9q6 0 9.4 3.9 3.4 3.9 3.4 10.8 0 6.8-3.4 10.7-3.4 3.9-9.4 3.9-6 0-9.4-3.9-3.4-3.9-3.4-10.7 0-6.9 3.4-10.8 3.4-3.9 9.4-3.9zm20.4 28.6v-38.7h4.6v38.7zm14.1 0v-27.9h4.6v27.9zm0-32.9v-5.8h4.6v5.8zm32.5 9.2v-15h4.6v38.7h-4.6v-4.2q-1.4 2.5-3.6 3.7-2.2 1.2-5.3 1.2-5.1 0-8.3-4-3.1-4-3.1-10.6 0-6.6 3.1-10.6 3.2-4.1 8.3-4.1 3.1 0 5.3 1.3 2.2 1.2 3.6 3.6zm-15.6 9.8q0 5 2.1 7.9 2.1 2.9 5.7 2.9 3.6 0 5.7-2.9 2.1-2.9 2.1-7.9 0-5.1-2.1-7.9-2.1-2.9-5.7-2.9-3.6 0-5.7 2.9-2.1 2.8-2.1 7.9zm53.5-1.2v2.3h-21.1q0.3 4.7 2.9 7.2 2.5 2.4 7.1 2.4 2.6 0 5.1-0.6 2.5-0.7 4.9-2v4.4q-2.4 1-5 1.6-2.6 0.5-5.3 0.5-6.7 0-10.6-3.9-3.9-3.8-3.9-10.5 0-6.8 3.7-10.8 3.7-4.1 10-4.1 5.6 0 8.9 3.7 3.3 3.6 3.3 9.8zm-20.9-1.3h16.3q0-3.8-2.1-6-2.1-2.3-5.4-2.3-3.9 0-6.2 2.2-2.3 2.2-2.6 6.1zm32.8 12.2v14.8h-4.6v-38.5h4.6v4.2q1.5-2.4 3.7-3.6 2.2-1.3 5.3-1.3 5 0 8.2 4.1 3.2 4 3.2 10.6 0 6.6-3.2 10.6-3.2 4-8.2 4-3.1 0-5.3-1.2-2.2-1.2-3.7-3.7zm15.6-9.7q0-5.1-2.1-7.9-2-2.9-5.7-2.9-3.6 0-5.7 2.9-2.1 2.8-2.1 7.9 0 5 2.1 7.9 2.1 2.9 5.7 2.9 3.7 0 5.7-2.9 2.1-2.9 2.1-7.9zm23.2-10.8q-3.7 0-5.8 2.9-2.2 2.9-2.2 7.9 0 5 2.1 7.9 2.2 2.8 5.9 2.8 3.7 0 5.8-2.9 2.1-2.8 2.1-7.8 0-5-2.1-7.9-2.1-2.9-5.8-2.9zm0-3.9q6 0 9.4 3.9 3.4 3.9 3.4 10.8 0 6.8-3.4 10.7-3.4 3.9-9.4 3.9-6 0-9.4-3.9-3.4-3.9-3.4-10.7 0-6.9 3.4-10.8 3.4-3.9 9.4-3.9zm36.5 0.3v4.7q-0.7-0.5-1.6-0.7-0.9-0.2-2-0.2-3.9 0-6 2.6-2.1 2.5-2.1 7.2v14.7h-4.6v-27.9h4.6v4.3q1.5-2.5 3.8-3.7 2.3-1.3 5.6-1.3 0.5 0 1.1 0.1 0.5 0.1 1.2 0.2zm4.8-7.5h4.6v7.9h9.4v3.6h-9.4v15.1q0 3.4 0.9 4.4 1 1 3.8 1h4.7v3.8h-4.7q-5.3 0-7.3-2-2-2-2-7.2v-15.1h-3.4v-3.6h3.4zm20.1 35.8v-27.9h4.5v27.9zm0-32.9v-5.8h4.6v5.8zm21.4 32.9l-10.5-27.9h4.9l8.7 23.4 8.7-23.4h4.8l-10.4 27.9zm33.8-24.7q-3.7 0-5.8 2.9-2.2 2.9-2.2 7.9 0 5 2.1 7.9 2.2 2.9 5.9 2.9 3.7 0 5.8-2.9 2.1-2.9 2.1-7.9 0-5-2.1-7.8-2.1-3-5.8-3zm0-3.8q6 0 9.4 3.8 3.4 3.9 3.4 10.8 0 6.8-3.4 10.8-3.4 3.8-9.4 3.8-6 0-9.4-3.8-3.4-4-3.4-10.8 0-6.9 3.4-10.8 3.4-3.8 9.4-3.8z"/>
</svg>